PathFileType	4	(X/Y/Z)	Patient4_TMGait_0pt8_01_left_15.trc.trc
DataRate	CameraRate	NumFrames	NumMarkers	Units	OrigDataRate	OrigDataStartFrame	OrigNumFrames
89.743589743590	89.743589743590	4	33	mm	89.743589743590	106	       141
Frame#	Time	Sacral			L.Shoulder			Chest			R.Shoulder			Neck			R.ASIS			L.ASIS			R.Thigh.Superior			R.Thigh.Lateral			R.Thigh.Inferior			R.Patella			L.Thigh.Superior			L.Thigh.Lateral			L.Thigh.Inferior			L.Patella			L.Shank.Superior			L.Shank.Lateral			L.Shank.Inferior			R.Shank.Superior			R.Shank.Lateral			R.Shank.Inferior			R.Heel			R.Midfoot.Superior			R.Midfoot.Lateral			R.Toe			L.Heel			L.Midfoot.Lateral			L.Midfoot.Superior			L.Toe			L.Elbow			L.Wrist			R.Elbow			R.Wrist			
		X1	Y1	Z1	X2	Y2	Z2	X3	Y3	Z3	X4	Y4	Z4	X5	Y5	Z5	X6	Y6	Z6	X7	Y7	Z7	X8	Y8	Z8	X9	Y9	Z9	X10	Y10	Z10	X11	Y11	Z11	X12	Y12	Z12	X13	Y13	Z13	X14	Y14	Z14	X15	Y15	Z15	X16	Y16	Z16	X17	Y17	Z17	X18	Y18	Z18	X19	Y19	Z19	X20	Y20	Z20	X21	Y21	Z21	X22	Y22	Z22	X23	Y23	Z23	X24	Y24	Z24	X25	Y25	Z25	X26	Y26	Z26	X27	Y27	Z27	X28	Y28	Z28	X29	Y29	Z29	X30	Y30	Z30	X31	Y31	Z31	X32	Y32	Z32	X33	Y33	Z33	

106	17.180000000000	902.655500875721	1009.728775503982	510.657406132872	1056.068854670872	1438.410880900032	319.960849742266	1180.519168954973	1365.240775710585	464.341952156159	1123.984990310172	1436.060931425442	649.964540186396	1067.564927642411	1497.889033785223	475.686243439781	1138.031471209906	945.807257336484	605.457399683695	1098.565826203480	967.235216689187	332.855811505216	1154.922182895524	738.406345313005	574.907722253288	1062.367311351066	635.065974162302	636.292293429700	1130.503661533023	576.774242398480	555.870205823599	1120.956896922818	491.388858090275	560.161829811788	1194.490793783379	803.406963118031	355.602941646129	1160.729189223212	671.465465506463	274.076331972126	1274.590446045770	622.104307521809	325.078797099988	1301.060484358296	540.395102891076	313.883475261070	1257.865630427158	461.937479878927	309.108453378662	1138.197335231587	370.695217527387	271.381503398652	1182.756582838433	244.762251711480	319.224545981063	1091.410809769358	404.778378602532	564.483058677482	1016.009992692250	300.801892414927	621.163795806375	1058.746320785312	206.939977649456	555.638679466983	924.210279052722	43.834473255877	512.642667187393	1094.040322501197	97.600962908462	560.745187754853	1002.984028186168	37.325601840615	592.505500580955	1211.495728896798	42.207286579081	594.393405266449	1039.042876538769	110.665862369500	372.470435123870	1098.394474732912	92.699274030902	283.279565325061	1194.389882350948	140.075843104781	294.728825156719	1303.859876102105	68.432650532327	249.438269361200	995.022895771488	1084.047846367167	223.379403469379	1092.192347479499	840.108975841189	221.369957674426	1177.136036818224	1091.363276862543	772.190773843424	1372.712875308161	921.591412002036	747.686851898939	
107	17.191142857143	902.004834888138	1009.683395106131	511.398633375906	1054.989017462463	1437.730350416257	320.432030696330	1179.887990629392	1364.830139566761	464.540852254836	1123.958725651219	1435.908927303882	650.269460985490	1066.852047286112	1497.460562667526	476.203914234526	1137.355746445849	945.402651681069	605.921294227904	1097.662633494311	966.572689103653	333.173440060050	1151.343640760339	737.388809916844	575.542543073725	1057.071750754277	635.098667958104	637.012968109496	1124.138234094417	575.892831752052	556.763615395299	1113.457796904920	490.929151775219	560.950291044625	1192.903119133338	802.957043437150	356.246974518230	1159.793457734648	670.917616388942	274.338242143487	1273.154009514389	621.863859381247	326.241221262742	1300.811398740708	542.250618081543	314.708278304765	1261.748243659404	463.599244493075	309.193230837658	1148.591203318663	365.078166114055	270.645347378950	1201.544201073850	241.811765164092	317.673139507142	1083.492394832949	404.614578718292	565.031350005009	1007.690823199818	300.871818908853	621.685139617405	1050.186553546352	206.972364965493	556.006360657083	915.287381990169	43.858382259362	512.783211004598	1085.153666032338	97.587775644284	560.846985337280	994.020750945136	37.322475126265	592.536270223414	1202.552536001199	42.046258643011	594.453633885543	1067.530699521160	98.089382249532	370.376600881297	1127.593575663618	84.700088476320	280.863804330722	1220.351017492280	138.020052007574	292.331871162891	1334.060354580899	73.784229970867	246.254924929291	989.300628738522	1083.812390009775	225.278587956078	1068.151773558928	833.414063228787	224.005504853032	1188.493167302207	1093.591317640798	771.860174512697	1394.147924991899	936.996631059092	744.246417957192	
108	17.202285714286	901.434390778084	1009.476982734001	511.917660407472	1054.144815766069	1436.922202570909	320.744814955899	1179.345644072333	1364.250669475442	464.684788177936	1123.858478266271	1435.584774828432	650.467498928817	1066.208744175989	1496.874467417839	476.607964999658	1136.689196335442	944.892652556204	606.383628720606	1097.005460108135	965.626137585212	333.441722344695	1147.871392426749	736.279696775468	576.324692592568	1051.804502825362	635.064556083462	637.722590406766	1117.890523503355	574.983788831732	557.676195317932	1106.103932184481	490.410477755574	561.724253705626	1191.149250649615	801.731594040507	356.858658485170	1158.373738385745	669.795030142487	274.553738138658	1271.066613845509	620.692570234448	327.579633148729	1299.802753350908	543.368721597222	315.821079708015	1264.892410817576	464.905218613696	309.538108473665	1158.900727802199	359.575102066301	269.714079710738	1219.821853435001	239.553883648641	316.282258832601	1075.652918423512	404.413770028911	565.559903269365	999.430199810267	300.933855220258	622.185963955924	1041.651701376849	206.984173584021	556.357313795021	906.356912018715	43.865519332241	512.924770757952	1076.251827391310	97.562196714744	560.925848105935	985.052329284542	37.309928892392	592.568199667453	1193.612324839232	41.905961053948	594.514727496660	1095.847447340208	86.997893213027	367.971267685199	1156.783698159496	78.009754208108	278.468228302687	1245.931027958099	136.985057655067	290.256959855532	1363.535854832944	80.210600606098	244.111016677692	983.374542966680	1083.743045363518	226.810714539072	1044.640973671928	828.627367552246	226.534102062116	1199.461376922590	1096.037128276664	771.272056883941	1414.273327844314	953.190242474830	740.597307070326	
109	17.213428571429	900.958759258412	1009.120617536294	512.220199505407	1053.532089858281	1436.006936477396	320.893338115888	1178.893852074337	1363.522321184076	464.763472875503	1123.686302245275	1435.105044953946	650.548999730739	1065.637993186983	1496.147714310843	476.887219550083	1136.035132036626	944.276945860499	606.846846610925	1096.601571236019	964.425642405458	333.668046323149	1144.526962975188	735.078890536174	577.231509760350	1046.610707508993	634.961491424770	638.408338559276	1111.795982937294	574.047513591039	558.577664059280	1098.934816923739	489.824337986600	562.457433820732	1189.274570846452	799.804729263439	357.444580084355	1156.522668139427	668.154769638262	274.696371602630	1268.435998708598	618.699050777681	329.015618995823	1298.145092350366	543.815734924756	317.200659055640	1267.351433255148	465.888917625390	310.139073540886	1169.037445673554	354.321920697564	268.619213506461	1237.369564162557	238.042125200723	315.112012853396	1067.930528788894	404.171044880154	566.061471298333	991.258235295359	300.988036166189	622.662522082206	1033.155118841171	206.967500899629	556.687148741098	897.414403635882	43.859291958296	513.062994885969	1067.331559727897	97.519180007963	560.978368565844	976.077590962903	37.287235761584	592.603293905931	1184.673225072726	41.784690445961	594.574924154694	1123.539011254056	77.566378517676	365.341159629271	1185.580120574558	72.690586237633	276.219160885207	1270.829225243698	136.958035906761	288.612163171040	1391.987318055013	87.546987633287	243.215687636413	977.187446080639	1083.894206156115	227.997620255208	1021.926647026179	825.600978014194	228.961807879026	1210.010454303457	1098.679663117406	770.437464067220	1432.998302164227	970.013059852185	736.797806485392	
